<svg xmlns="http://www.w3.org/2000/svg" width="256" height="256" viewBox="0 0 100 100"><rect width="100" height="100" rx="50" fill="#26bcf7"></rect><path fill="#fff" d="M33.76 85.32L33.76 85.32Q30.05 85.32 27.90 83.12Q25.76 80.91 25.76 77.20L25.76 77.20L25.76 22.68Q25.76 18.97 27.90 16.82Q30.05 14.68 33.76 14.68L33.76 14.68L72.16 14.68Q72.74 15.61 73.20 17.11Q73.66 18.62 73.66 20.48L73.66 20.48Q73.66 23.49 72.27 25.12Q70.88 26.74 68.44 26.74L68.44 26.74L40.37 26.74L40.37 43.21L68.68 43.21Q69.26 44.14 69.78 45.59Q70.30 47.04 70.30 48.90L70.30 48.90Q70.30 55.16 64.96 55.16L64.96 55.16L40.37 55.16L40.37 73.14L72.62 73.14Q73.20 74.07 73.72 75.64Q74.24 77.20 74.24 79.06L74.24 79.06Q74.24 85.32 68.91 85.32L68.91 85.32L33.76 85.32Z"></path></svg>